<svg width="24" height="24" viewBox="0 0 24 24" fill="none" xmlns="http://www.w3.org/2000/svg">
<path fill-rule="evenodd" clip-rule="evenodd" d="M14 1.5H10L8.96857 4.59432C8.29653 4.8697 7.6703 5.2339 7.10445 5.67231L3.90674 5.01795L1.90674 8.48205L4.0718 10.9236C4.02446 11.2757 4.00001 11.635 4.00001 12C4.00001 12.3653 4.0245 12.7249 4.07192 13.0772L1.90674 15.5189L3.90674 18.983L7.10545 18.3285C7.67103 18.7665 8.29693 19.1305 8.96857 19.4057L10 22.5H14L15.0315 19.4057C15.7035 19.1303 16.3297 18.7661 16.8956 18.3277L20.0933 18.982L22.0933 15.5179L19.9282 13.0764C19.9756 12.7243 20 12.365 20 12C20 11.6353 19.9756 11.2762 19.9283 10.9245L22.0933 8.48303L20.0933 5.01893L16.8966 5.67308C16.3305 5.23433 15.7039 4.86986 15.0315 4.59432L14 1.5Z" fill="white"/>
<path d="M10 1.5V0.25H9.09906L8.81416 1.10472L10 1.5ZM14 1.5L15.1859 1.10472L14.901 0.25H14V1.5ZM8.96857 4.59432L9.44253 5.75098L9.9731 5.53357L10.1544 4.98961L8.96857 4.59432ZM7.10445 5.67231L6.85385 6.89693L7.41626 7.01202L7.87005 6.66043L7.10445 5.67231ZM3.90674 5.01795L4.15734 3.79333L3.27469 3.6127L2.82421 4.39295L3.90674 5.01795ZM1.90674 8.48205L0.824212 7.85705L0.373737 8.6373L0.97149 9.31139L1.90674 8.48205ZM4.0718 10.9236L5.31065 11.0902L5.38697 10.5227L5.00706 10.0943L4.0718 10.9236ZM4.07192 13.0772L5.00717 13.9066L5.38714 13.4781L5.31075 12.9105L4.07192 13.0772ZM1.90674 15.5189L0.971485 14.6896L0.373732 15.3637L0.824207 16.1439L1.90674 15.5189ZM3.90674 18.983L2.82421 19.608L3.27468 20.3883L4.15734 20.2076L3.90674 18.983ZM7.10545 18.3285L7.87089 17.3402L7.41714 16.9888L6.85485 17.1038L7.10545 18.3285ZM8.96857 19.4057L10.1544 19.0104L9.9731 18.4664L9.44253 18.249L8.96857 19.4057ZM10 22.5L8.81416 22.8953L9.09906 23.75H10V22.5ZM14 22.5V23.75H14.901L15.1859 22.8953L14 22.5ZM15.0315 19.4057L14.5575 18.249L14.0269 18.4664L13.8456 19.0104L15.0315 19.4057ZM16.8956 18.3277L17.1462 17.1031L16.5838 16.988L16.13 17.3396L16.8956 18.3277ZM20.0933 18.982L19.8427 20.2067L20.7253 20.3873L21.1758 19.607L20.0933 18.982ZM22.0933 15.5179L23.1758 16.1429L23.6263 15.3627L23.0285 14.6886L22.0933 15.5179ZM19.9282 13.0764L18.6894 12.9098L18.613 13.4773L18.993 13.9057L19.9282 13.0764ZM19.9283 10.9245L18.9931 10.0951L18.6132 10.5235L18.6895 11.0909L19.9283 10.9245ZM22.0933 8.48303L23.0285 9.31237L23.6263 8.63827L23.1758 7.85803L22.0933 8.48303ZM20.0933 5.01893L21.1758 4.39393L20.7253 3.61368L19.8427 3.7943L20.0933 5.01893ZM16.8966 5.67308L16.1308 6.66108L16.5846 7.01282L17.1472 6.89771L16.8966 5.67308ZM15.0315 4.59432L13.8456 4.98961L14.0269 5.53357L14.5575 5.75098L15.0315 4.59432ZM10 2.75H14V0.25H10V2.75ZM10.1544 4.98961L11.1859 1.89528L8.81416 1.10472L7.78271 4.19904L10.1544 4.98961ZM7.87005 6.66043C8.34789 6.29019 8.87622 5.98304 9.44253 5.75098L8.49461 3.43766C7.71684 3.75637 6.9927 4.17761 6.33886 4.6842L7.87005 6.66043ZM3.65614 6.24257L6.85385 6.89693L7.35506 4.44769L4.15734 3.79333L3.65614 6.24257ZM2.98927 9.10705L4.98927 5.64295L2.82421 4.39295L0.824212 7.85705L2.98927 9.10705ZM5.00706 10.0943L2.842 7.65271L0.97149 9.31139L3.13655 11.753L5.00706 10.0943ZM5.25001 12C5.25001 11.6909 5.27071 11.3872 5.31065 11.0902L2.83296 10.757C2.7782 11.1641 2.75001 11.5791 2.75001 12H5.25001ZM5.31075 12.9105C5.27074 12.6133 5.25001 12.3094 5.25001 12H2.75001C2.75001 12.4212 2.77825 12.8365 2.83309 13.244L5.31075 12.9105ZM2.84199 16.3483L5.00717 13.9066L3.13666 12.2479L0.971485 14.6896L2.84199 16.3483ZM4.98927 18.358L2.98927 14.8939L0.824207 16.1439L2.82421 19.608L4.98927 18.358ZM6.85485 17.1038L3.65614 17.7584L4.15734 20.2076L7.35605 19.5531L6.85485 17.1038ZM9.44253 18.249C8.87655 18.0171 8.34851 17.7102 7.87089 17.3402L6.34001 19.3167C6.99355 19.8229 7.7173 20.2438 8.4946 20.5623L9.44253 18.249ZM11.1859 22.1047L10.1544 19.0104L7.78271 19.801L8.81416 22.8953L11.1859 22.1047ZM14 21.25H10V23.75H14V21.25ZM13.8456 19.0104L12.8142 22.1047L15.1859 22.8953L16.2173 19.801L13.8456 19.0104ZM16.13 17.3396C15.6521 17.7098 15.1238 18.017 14.5575 18.249L15.5054 20.5623C16.2832 20.2436 17.0073 19.8224 17.6612 19.3158L16.13 17.3396ZM20.3439 17.7574L17.1462 17.1031L16.645 19.5523L19.8427 20.2067L20.3439 17.7574ZM21.0107 14.8929L19.0107 18.357L21.1758 19.607L23.1758 16.1429L21.0107 14.8929ZM18.993 13.9057L21.158 16.3473L23.0285 14.6886L20.8635 12.2471L18.993 13.9057ZM18.75 12C18.75 12.3091 18.7293 12.6128 18.6894 12.9098L21.1671 13.243C21.2218 12.8359 21.25 12.4209 21.25 12H18.75ZM18.6895 11.0909C18.7293 11.3877 18.75 11.6911 18.75 12H21.25C21.25 11.5794 21.2219 11.1648 21.1672 10.758L18.6895 11.0909ZM21.158 7.65369L18.9931 10.0951L20.8636 11.7538L23.0285 9.31237L21.158 7.65369ZM19.0107 5.64393L21.0107 9.10803L23.1758 7.85803L21.1758 4.39393L19.0107 5.64393ZM17.1472 6.89771L20.3439 6.24355L19.8427 3.7943L16.646 4.44846L17.1472 6.89771ZM14.5575 5.75098C15.1241 5.98317 15.6527 6.29055 16.1308 6.66108L17.6623 4.68509C17.0082 4.1781 16.2836 3.75655 15.5054 3.43766L14.5575 5.75098ZM12.8142 1.89528L13.8456 4.98961L16.2173 4.19904L15.1859 1.10472L12.8142 1.89528Z" fill="black"/>
<circle cx="12" cy="12" r="3" fill="white" stroke="black" stroke-width="2.5"/>
</svg>
