<svg width="520" height="81" viewBox="0 0 520 81" fill="none" xmlns="http://www.w3.org/2000/svg">
<path d="M291.094 2.61694H271.455V72.7064H291.094V2.61694Z" fill="#F7F8F8"/>
<path d="M350.878 39.7874V72.7061L333.363 72.7996V68.2204C333.363 68.2204 328.015 70.6735 325.47 71.4445C323.041 72.1921 320.052 72.7061 316.993 72.7061C314.868 72.7061 312.766 72.4258 310.711 71.8417C308.679 71.2576 306.858 70.3464 305.293 69.1315C303.728 67.9167 302.444 66.328 301.463 64.4589C300.482 62.5899 300.015 60.2536 300.015 57.5434C300.015 54.2492 300.716 51.4457 302.117 49.2262C303.518 47.0067 305.457 45.2311 307.839 43.9694C310.361 42.6845 313.046 41.7733 315.802 41.236C317.437 40.9322 319.235 40.6752 321.173 40.5117C322.551 40.3715 323.975 40.2781 325.493 40.2313L332.593 39.9744V37.2409C332.593 35.0214 332.102 33.4093 331.121 32.358C330.117 31.2833 328.669 30.7226 326.778 30.7226C325.003 30.7226 323.578 31.1898 322.527 32.0543C321.687 32.7785 321.056 33.8065 320.683 35.1148L303.495 35.2784C303.869 29.9516 306.671 25.1388 310.384 22.5455C314.447 19.7652 320.169 18.3401 327.385 18.3401C331.892 18.3401 335.699 18.8774 338.711 19.9054C341.677 20.9334 344.106 22.3819 345.904 24.2276C347.702 26.0499 348.986 28.2928 349.757 30.8861C350.504 33.5261 350.878 36.5166 350.878 39.7874ZM330.631 51.8895V51.7026L326.1 51.9596C323.812 52.0765 322.13 52.497 321.126 53.2446C320.192 53.8988 319.748 54.7632 319.748 55.9314C319.748 56.9126 320.029 57.6135 320.589 58.0574C321.196 58.5714 322.201 58.805 323.508 58.805C325.633 58.805 327.315 58.1742 328.646 56.8893C329.977 55.6277 330.631 53.9689 330.631 51.8895Z" fill="#F7F8F8"/>
<path d="M397.164 19.4148C393.801 19.4148 389.621 19.8587 387.145 21.0502C385.23 21.9614 383.409 23.6669 381.821 25.9798V19.4148H360.85V72.8229H382.428V42.7078C382.428 41.7032 382.521 40.9089 382.685 40.3482C382.848 39.7875 383.082 39.2968 383.339 38.8763C383.876 38.0586 384.6 37.4745 385.51 37.054C386.421 36.6568 387.449 36.4465 388.593 36.4465C389.947 36.4465 390.975 36.8437 391.722 37.6614C392.47 38.4791 392.843 39.8108 392.843 41.7032V72.8229H414.421V37.7782C414.421 31.7272 413.23 27.4517 410.148 24.1575C407.019 20.8399 402.978 19.4148 397.164 19.4148Z" fill="#F7F8F8"/>
<path d="M480.697 36.2829H489.361V52.8707C489.361 56.5387 489.711 59.7395 490.389 62.3561C491.042 64.9261 491.953 66.2578 493.448 67.9166C494.942 69.552 496.927 70.7902 499.379 71.5846C501.902 72.4023 505.007 72.7995 508.651 72.7995C511.266 72.7995 516.077 72.8696 519.533 72.0518L519.463 58.104C518.365 58.1741 517.081 58.1741 515.983 58.1741H515.493C513.601 58.1741 512.06 57.7302 510.892 56.8658C509.608 55.9313 508.977 54.2258 508.977 51.6558V36.2595H519.977V21.3772H508.977V7.56958H489.338V21.3772H480.674V36.2829H480.697Z" fill="#F7F8F8"/>
<path d="M474.812 44.7872C474.812 40.7453 474.252 37.0306 473.154 33.7598C472.056 30.5123 470.422 27.7087 468.273 25.4425C466.125 23.1763 463.439 21.4007 460.31 20.1858C457.134 18.9475 453.467 18.3401 449.381 18.3401C445.224 18.3401 441.441 18.9709 438.195 20.2325C434.949 21.4941 432.146 23.3164 429.881 25.6995C427.616 28.0825 425.841 31.0263 424.65 34.4607C423.459 37.9418 422.828 41.9135 422.828 46.3058C422.828 54.623 425.07 61.1881 429.461 65.8607C433.851 70.51 440.647 72.8697 449.684 72.8697C456.714 72.8697 462.412 71.3511 466.615 68.3606C470.515 65.5804 473.107 61.3049 474.322 55.651H456.433C455.639 57.7771 453.748 59.9966 449.381 59.9966C446.975 59.9966 445.014 59.2723 443.566 57.8472C442.095 56.422 441.301 53.9455 441.16 50.2775L441.114 49.2729H474.835L474.812 44.7872ZM457.251 40.4883H441.207L441.254 39.4837C441.394 36.6101 442.258 34.4373 443.799 33.0589C445.317 31.6804 447.302 31.0029 449.684 31.0029C451.95 31.0029 453.771 31.6571 455.055 32.9421C456.34 34.2504 457.064 36.3764 457.204 39.4837L457.251 40.4883Z" fill="#F7F8F8"/>
<path opacity="0.7" d="M49.5783 0C36.3372 0 24.5673 6.35477 17.1877 16.214C22.8158 12.6628 29.4714 10.5601 36.6174 10.5601C56.7476 10.5601 73.048 26.8676 73.048 47.0066C73.048 62.5198 63.3332 75.7433 49.695 81C71.9971 80.9533 90.0723 62.8468 90.0723 40.5117C90.0489 18.1298 71.927 0 49.5783 0Z" fill="#E1DD22"/>
<path opacity="0.5" d="M49.5783 0.116943C38.0653 0.116943 27.6732 4.92975 20.2937 12.6629C26.4822 8.41086 33.9785 5.88764 42.0586 5.88764C63.2865 5.88764 80.4742 23.1063 80.4742 44.32C80.4742 61.3985 69.3349 75.8602 53.9219 80.86C74.239 78.6872 90.049 61.4919 90.049 40.6053C90.049 18.2467 71.9271 0.116943 49.5783 0.116943Z" fill="#E1DD22"/>
<g opacity="0.8">
<path opacity="0.8" d="M111.791 2.17272C101.142 -4.74277 76.6677 7.73315 76.6677 7.73315C91.2166 3.94832 98.853 4.41558 99.8805 8.83122C101.235 14.672 86.5694 28.8301 66.4858 41.8901C59.3398 46.5393 51.7968 50.3709 44.4173 53.5483C42.8293 51.5157 40.4006 50.184 37.645 50.1372C32.7408 50.0438 28.7008 53.9454 28.6074 58.8517C28.6074 59.0853 28.6541 59.319 28.6541 59.5526C12.4238 64.9261 0 67.8932 0 67.8932C0 67.8932 13.3345 67.5895 30.6624 64.6691C32.2504 66.5849 34.6091 67.8465 37.2947 67.8932C41.4982 67.9633 45.0478 65.113 46.052 61.2114C51.9136 59.5526 57.9153 57.4032 63.7769 54.6463C105.859 34.8811 119.66 7.28925 111.791 2.17272Z" fill="#F6F2AC"/>
</g>
<path d="M205.903 72.7063H225.94V51.1187H232.946C238.457 51.1187 243.127 50.4646 246.841 49.203C250.507 47.9414 253.426 46.2359 255.551 44.0864C257.653 41.9604 259.194 39.3905 260.105 36.4467C261.039 33.4562 261.53 30.2087 261.53 26.751C261.53 23.3633 261.063 20.1626 260.152 17.1955C259.264 14.2984 257.723 11.7519 255.598 9.62581C253.449 7.49976 250.507 5.77089 246.841 4.50928C243.127 3.24767 238.41 2.59351 232.829 2.59351H205.903V72.7063ZM233.062 35.3019H225.94V18.4337H233.062C236.729 18.4337 239.204 19.1346 240.699 20.5831C242.17 22.0083 242.917 24.1343 242.917 26.8678C242.917 29.6013 242.193 31.7273 240.769 33.1525C239.321 34.601 236.799 35.3019 233.062 35.3019Z" fill="#F7F8F8"/>
<path d="M191.237 72.7062L172.858 44.4602L189.929 19.4382H168.562L162.35 28.3162L156.558 19.4382H133.088L150.323 45.4881L131.267 72.7062H153.546L161.065 61.7022L168.351 72.7062H191.237Z" fill="#E1DD22"/>
<path opacity="0.5" d="M162.35 28.3162L172.859 44.4602L189.93 19.4382H168.562L162.35 28.3162Z" fill="#ACA419"/>
</svg>
