<svg width="160" height="160" viewBox="0 0 160 160" fill="none" xmlns="http://www.w3.org/2000/svg">
<path d="M151.902 23.7043C136.17 15.9674 102.901 34.536 102.901 34.536C123.017 28.0886 133.849 27.8307 135.654 33.5044C138.233 40.9835 112.186 63.1627 91.8117 77.8629C78.9168 87.4051 64.4745 94.3684 51.0638 99.7842C48.7427 96.4316 44.8743 94.1105 40.2321 94.1105C33.011 94.1105 27.3372 99.7842 27.3372 107.005C27.3372 107.263 27.3372 107.521 27.3372 108.037C11.3475 112.679 0 114.484 0 114.484C0 114.484 11.3475 115 28.8846 112.679C30.9478 117.063 35.332 120.158 40.49 120.158C47.4533 120.158 53.127 114.742 53.3849 107.779C64.4745 104.942 76.5957 100.816 88.9749 94.8842C147.26 67.547 163.507 29.636 151.902 23.7043Z" fill="black" fill-opacity="0.8"/>
<path d="M65.764 25.2515C46.4216 25.2515 29.4003 34.5358 18.5686 48.7202C26.8213 43.5622 36.3636 40.4675 46.9374 40.4675C76.3378 40.4675 100.064 64.1941 100.064 93.5945C100.064 116.032 85.88 135.374 66.0219 143.111C98.517 143.111 124.823 116.805 124.823 84.3101C124.823 51.5571 98.2591 25.2515 65.764 25.2515Z" fill="black"/>
</svg>
