<svg width="74" height="52" viewBox="0 0 74 52" fill="none" xmlns="http://www.w3.org/2000/svg">
<path d="M32.2118 0C23.6088 0 15.9618 4.07961 11.1672 10.409C14.8238 8.12922 19.148 6.77935 23.7909 6.77935C36.8698 6.77935 47.4604 17.2483 47.4604 30.1771C47.4604 40.1361 41.1486 48.6253 32.2877 52C46.7777 51.97 58.5214 40.3461 58.5214 26.0075C58.5062 11.6389 46.7321 0 32.2118 0Z" fill="#727171"/>
<path opacity="0.5" d="M32.2118 0.0759277C24.7316 0.0759277 17.9797 3.16563 13.1851 8.13015C17.2059 5.40042 22.0764 3.78057 27.3262 3.78057C41.1182 3.78057 52.2854 14.8345 52.2854 28.4532C52.2854 39.4171 45.048 48.7013 35.0339 51.9109C48.2342 50.5161 58.5062 39.4771 58.5062 26.0684C58.5062 11.7148 46.7321 0.0759277 32.2118 0.0759277Z" fill="#3E3A39"/>
<g opacity="0.8">
<path opacity="0.8" d="M72.6321 1.39554C65.7133 -3.04404 49.8122 4.96519 49.8122 4.96519C59.2649 2.53543 64.2263 2.8354 64.894 5.67012C65.774 9.41976 56.2455 18.5089 43.1969 26.8931C38.554 29.8778 33.6532 32.3376 28.8586 34.3774C27.8269 33.0725 26.2489 32.2176 24.4585 32.1876C21.2722 32.1276 18.6473 34.6323 18.5866 37.782C18.5866 37.932 18.617 38.082 18.617 38.232C8.07192 41.6817 0 43.5865 0 43.5865C0 43.5865 8.66365 43.3915 19.9219 41.5167C20.9536 42.7466 22.486 43.5565 24.2309 43.5865C26.962 43.6315 29.2683 41.8017 29.9207 39.2969C33.7291 38.232 37.6285 36.8521 41.4368 35.0823C68.7782 22.3935 77.7453 4.68022 72.6321 1.39554Z" fill="#595757"/>
</g>
</svg>
