<svg width="74" height="52" viewBox="0 0 74 52" fill="none" xmlns="http://www.w3.org/2000/svg">
<g clip-path="url(#clip0)">
<path opacity="0.7" d="M32.2128 0C23.6096 0 15.9623 4.07961 11.1675 10.409C14.8243 8.12922 19.1486 6.77935 23.7917 6.77935C36.871 6.77935 47.462 17.2483 47.462 30.1771C47.462 40.1361 41.1499 48.6253 32.2887 52C46.7792 51.97 58.5233 40.3461 58.5233 26.0075C58.5081 11.6389 46.7336 0 32.2128 0Z" fill="#E1DD22"/>
<path opacity="0.5" d="M32.2128 0.0749512C24.7324 0.0749512 17.9803 3.16465 13.1856 8.12918C17.2065 5.39944 22.0771 3.77959 27.327 3.77959C41.1195 3.77959 52.2871 14.8335 52.2871 28.4522C52.2871 39.4162 45.0494 48.7003 35.0351 51.91C48.2358 50.5151 58.5081 39.4762 58.5081 26.0675C58.5081 11.7138 46.7336 0.0749512 32.2128 0.0749512Z" fill="#E1DD22"/>
<g opacity="0.8">
<path opacity="0.8" d="M72.6344 1.3948C65.7154 -3.04477 49.8138 4.96446 49.8138 4.96446C59.2668 2.53469 64.2284 2.83466 64.896 5.66939C65.7761 9.41903 56.2473 18.5082 43.1983 26.8924C38.5553 29.8771 33.6543 32.3368 28.8595 34.3766C27.8278 33.0718 26.2497 32.2168 24.4593 32.1868C21.2729 32.1268 18.6479 34.6316 18.5872 37.7813C18.5872 37.9313 18.6176 38.0813 18.6176 38.2313C8.07218 41.6809 0 43.5857 0 43.5857C0 43.5857 8.66393 43.3908 19.9225 41.5159C20.9543 42.7458 22.4868 43.5558 24.2317 43.5857C26.9629 43.6307 29.2692 41.8009 29.9217 39.2962C33.7302 38.2313 37.6297 36.8514 41.4382 35.0816C68.7804 22.3928 77.7478 4.67949 72.6344 1.3948Z" fill="#F6F2AC"/>
</g>
</g>
<defs>
<clipPath id="clip0">
<rect width="74" height="52" fill="white"/>
</clipPath>
</defs>
</svg>
